<?xml version="1.0" standalone="no"?>
<!DOCTYPE svg PUBLIC "-//W3C//DTD SVG 20010904//EN"
 "http://www.w3.org/TR/2001/REC-SVG-20010904/DTD/svg10.dtd">
<svg version="1.0" xmlns="http://www.w3.org/2000/svg"
 width="700.000000pt" height="700.000000pt" viewBox="0 0 700.000000 700.000000"
 preserveAspectRatio="xMidYMid meet">
<metadata>
Created by potrace 1.11, written by Peter Selinger 2001-2013
</metadata>
<g transform="translate(0.000000,700.000000) scale(0.100000,-0.100000)"
fill="#000000" stroke="none">
<path d="M0 3500 l0 -3500 3500 0 3500 0 0 3500 0 3500 -3500 0 -3500 0 0
-3500z m4486 2837 c709 -106 1229 -506 1424 -1096 78 -237 74 -143 78 -1661 2
-904 -1 -1394 -8 -1473 -50 -556 -366 -1006 -885 -1257 -203 -98 -391 -155
-622 -187 -115 -16 -216 -18 -973 -18 -757 0 -858 2 -973 18 -231 32 -419 89
-622 187 -404 196 -681 505 -815 909 -79 237 -75 151 -75 1741 0 1591 -4 1504
76 1743 151 457 493 798 984 982 176 66 408 115 605 128 30 2 424 3 875 2 707
-1 835 -4 931 -18z"/>
<path d="M2520 5760 l0 -220 495 0 495 0 0 -1505 0 -1505 220 0 220 0 0 1505
0 1505 495 0 495 0 0 220 0 220 -1210 0 -1210 0 0 -220z"/>
</g>
</svg>
